# xmcd
# 
# Track frame offsets:
#     150
#     14188
#     24717
#     35593
#     49613
#     63397
#     77347
#     90893
#     102438
#     115208
#     127912
#     140592
#     153832
#     166090
#     176617
#     188482
#     200472
#     216938
#     227491
#     244646
#     258532
#     271966
#     286862
#     310073
# 
# Disc length: 4480
# 
# Revision: 8
# Processed by: cddbd v1.5.2PL0 Copyright (c) Steve Scherf et al.
# Submitted via: fre:ac v1.1beta1pre5
# 
DISCID=3e117e18
DTITLE=Otis Rush - The Classic Cobra Recordings 1956 - 1958
DYEAR=2000
DGENRE=Blues
TTITLE0=I Can't Quit You Baby
TTITLE1=Sit Down Baby
TTITLE2=Violent Love
TTITLE3=My Love Will Never Die
TTITLE4=Groaning The Blues
TTITLE5=If You Were Mine
TTITLE6=Love That Woman
TTITLE7=Jump Sister Bessie
TTITLE8=Three Times A Fool
TTITLE9=She's A Good 'Un
TTITLE10=It Takes Time
TTITLE11=Checking On My Baby
TTITLE12=Double Trouble
TTITLE13=Keep On Loving Me Baby
TTITLE14=All Your Love (I Miss Loving)
TTITLE15=My Baby Is A Good 'Un
TTITLE16=I Can't Quit You Baby (Take 3)
TTITLE17=Little Red Rooster
TTITLE18=Groaning The Blues (Take 3)
TTITLE19=My Love Will Never Die (Unknown Take)
TTITLE20=She's A Good 'Un (Take 4)
TTITLE21=Three Times A Fool (Unknown Take)
TTITLE22=Double Trouble (Take 3)
TTITLE23=Sit Down Baby (Unknown Take)
EXTD=
EXTT0=
EXTT1=
EXTT2=
EXTT3=
EXTT4=
EXTT5=
EXTT6=
EXTT7=
EXTT8=
EXTT9=
EXTT10=
EXTT11=
EXTT12=
EXTT13=
EXTT14=
EXTT15=
EXTT16=
EXTT17=
EXTT18=
EXTT19=
EXTT20=
EXTT21=
EXTT22=
EXTT23=
PLAYORDER=
